<?xml version="1.0" encoding="UTF-8" standalone="no"?>
<!-- Created with Inkscape (http://www.inkscape.org/) -->

<svg
   width="210mm"
   height="81mm"
   viewBox="0 0 210 81"
   version="1.1"
   id="svg5"
   inkscape:version="1.2.1 (9c6d41e, 2022-07-14)"
   sodipodi:docname="1dmcmc.svg"
   inkscape:export-filename="1dmcmc.png"
   inkscape:export-xdpi="96"
   inkscape:export-ydpi="96"
   xmlns:inkscape="http://www.inkscape.org/namespaces/inkscape"
   xmlns:sodipodi="http://sodipodi.sourceforge.net/DTD/sodipodi-0.dtd"
   xmlns="http://www.w3.org/2000/svg"
   xmlns:svg="http://www.w3.org/2000/svg">
  <sodipodi:namedview
     id="namedview7"
     pagecolor="#ffffff"
     bordercolor="#000000"
     borderopacity="0.25"
     inkscape:showpageshadow="2"
     inkscape:pageopacity="0.0"
     inkscape:pagecheckerboard="0"
     inkscape:deskcolor="#d1d1d1"
     inkscape:document-units="mm"
     showgrid="false"
     inkscape:zoom="1.0289025"
     inkscape:cx="457.28337"
     inkscape:cy="229.85657"
     inkscape:window-width="1728"
     inkscape:window-height="1051"
     inkscape:window-x="0"
     inkscape:window-y="38"
     inkscape:window-maximized="0"
     inkscape:current-layer="layer1" />
  <defs
     id="defs2">
    <marker
       style="overflow:visible"
       id="Arrow5"
       refX="0"
       refY="0"
       orient="auto-start-reverse"
       inkscape:stockid="Arrow5"
       markerWidth="5.8874259"
       markerHeight="6.6094756"
       viewBox="0 0 5.8874262 6.6094758"
       inkscape:isstock="true"
       inkscape:collect="always"
       preserveAspectRatio="xMidYMid">
      <path
         transform="scale(0.5)"
         style="fill:context-stroke;fill-rule:evenodd;stroke:context-stroke;stroke-width:1pt"
         d="m 6,0 c -3,1 -7,3 -9,5 0,0 0,-4 2,-5 -2,-1 -2,-5 -2,-5 2,2 6,4 9,5 z"
         id="path8893" />
    </marker>
    <rect
       x="432.49966"
       y="226.45488"
       width="103.02239"
       height="57.342651"
       id="rect516" />
    <rect
       x="432.49966"
       y="226.45488"
       width="243.94925"
       height="22.353913"
       id="rect516-0" />
    <marker
       style="overflow:visible"
       id="Arrow5-6"
       refX="0"
       refY="0"
       orient="auto-start-reverse"
       inkscape:stockid="Arrow5"
       markerWidth="5.8874259"
       markerHeight="6.6094756"
       viewBox="0 0 5.8874262 6.6094758"
       inkscape:isstock="true"
       inkscape:collect="always"
       preserveAspectRatio="xMidYMid">
      <path
         transform="scale(0.5)"
         style="fill:context-stroke;fill-rule:evenodd;stroke:context-stroke;stroke-width:1pt"
         d="m 6,0 c -3,1 -7,3 -9,5 0,0 0,-4 2,-5 -2,-1 -2,-5 -2,-5 2,2 6,4 9,5 z"
         id="path8893-5" />
    </marker>
  </defs>
  <g
     inkscape:label="Layer 1"
     inkscape:groupmode="layer"
     id="layer1">
    <path
       style="fill:#ffffff;stroke:#000000;stroke-width:1.30464"
       d="m 16.384432,49.525967 98.731268,-0.51942 c 1.65281,0.47225 2.42486,0.12377 4.12178,0.003 6.17724,-0.44123 -4.89926,0.92031 5.14302,-0.5143 1.96821,-0.28118 3.97719,-0.32439 5.91447,-0.77146 1.88205,-0.43431 3.8508,-1.36239 5.65732,-2.0572 5.06687,-1.9488 7.01806,-5.97386 9.51459,-10.286045 0.55997,-0.96722 1.2702,-1.84464 1.80006,-2.82867 0.0813,-0.15094 0,-0.34286 0,-0.5143 0.0857,-0.25715 0.10679,-0.54591 0.25715,-0.77145 0.20172,-0.30259 0.58435,-0.45961 0.77145,-0.77145 0.22487,-0.37479 0.0617,-0.89483 0.25715,-1.28576 0.54506,-1.09012 1.27952,-2.37084 2.05721,-3.34296 0.15146,-0.18932 0.38957,-0.30641 0.5143,-0.5143 0.13946,-0.23244 0.13593,-0.52901 0.25715,-0.77146 0.80311,-1.60622 3.5578,-3.51548 4.11442,-4.62872 0.0383,-0.0767 -0.0606,-0.19654 0,-0.25715 0.19167,-0.19167 0.52901,-0.13593 0.77145,-0.25715 1.49722,-0.7486 2.55625,-1.37787 4.37157,-1.5429 2.04931,-0.1863 4.69511,-0.20227 6.68593,0.25715 0.37352,0.0862 0.67268,0.37193 1.0286,0.5143 0.40581,0.16232 0.87651,0.10368 1.28576,0.25715 0.35893,0.1346 0.66493,0.39308 1.0286,0.5143 0.16264,0.0542 0.36097,-0.0767 0.5143,0 0.38334,0.19167 0.65235,0.56623 1.02861,0.77146 1.3604,0.74204 2.73607,1.36803 4.11441,2.0572 0.92484,0.46242 4.69124,4.90435 5.14302,5.65733 0.19723,0.32871 0.2843,0.72193 0.51431,1.0286 0.29093,0.38791 0.75963,0.62515 1.0286,1.0286 0.0951,0.14265 -0.0882,0.3673 0,0.51431 0.1871,0.31184 0.57871,0.46306 0.77145,0.77145 0.99604,1.59366 1.36726,3.67529 2.05721,5.40017 1.19041,2.976035 1.37381,6.090585 2.82866,9.000295 0.32753,0.65504 0.36521,1.44784 0.77146,2.0572 0.13448,0.20173 0.37981,0.31258 0.5143,0.51431 0.32177,0.48266 0.56127,1.58987 1.0286,2.0572 0.13553,0.13554 0.37877,0.12163 0.5143,0.25716 0.12123,0.12122 -0.12122,0.39308 0,0.5143 0.31136,0.31136 2.86503,0.73131 3.08582,0.77145 0.50126,0.0911 4.50532,0.60944 4.88587,0.5143 0.8206,-0.20515 1.50323,-0.14127 2.31435,-0.25715 0.86536,-0.12362 1.70272,-0.41777 2.57151,-0.5143 0.81593,-0.0907 1.7809,0.19765 2.57151,0 1.13703,-0.28426 0.41051,-0.25715 1.02861,-0.25715"
       id="path236" />
    <text
       xml:space="preserve"
       transform="scale(0.26458333)"
       id="text514"
       style="font-size:48px;line-height:0%;font-family:Georgia;-inkscape-font-specification:'Georgia, Normal';text-align:center;white-space:pre;shape-inside:url(#rect516);display:inline;fill:#0d0d0d;fill-opacity:1;stroke:none;stroke-width:6.34961;stroke-opacity:1"><tspan
         x="466.95996"
         y="239.76165"
         id="tspan559">X</tspan></text>
    <text
       xml:space="preserve"
       transform="matrix(0.26458333,0,0,0.26458333,-100.07822,-31.264894)"
       id="text514-2"
       style="font-size:48px;line-height:0%;font-family:Georgia;-inkscape-font-specification:'Georgia, Normal';text-align:center;white-space:pre;shape-inside:url(#rect516-0);display:inline;fill:#0d0d0d;fill-opacity:1;stroke:none;stroke-width:6.34961;stroke-opacity:1"><tspan
         x="442.36133"
         y="239.76165"
         id="tspan561">density(X)</tspan></text>
    <path
       style="fill:#0d0d0d;fill-opacity:1;stroke:#000000;stroke-width:1.0444;stroke-dasharray:none;stroke-opacity:1;marker-start:url(#Arrow5);marker-end:url(#Arrow5)"
       d="M 13.114701,22.80101 V 34.029368"
       id="path1615" />
    <path
       style="fill:#0d0d0d;fill-opacity:1;stroke:#000000;stroke-width:1.0444;stroke-dasharray:none;stroke-opacity:1;marker-start:url(#Arrow5-6);marker-end:url(#Arrow5-6)"
       d="M 116.96032,59.711689 105.73246,59.606383"
       id="path1615-5" />
  </g>
</svg>
